<?xml version="1.0" encoding="UTF-8"?>
<svg width="25px" height="25px" viewBox="0 0 25 25" version="1.1" xmlns="http://www.w3.org/2000/svg" xmlns:xlink="http://www.w3.org/1999/xlink">
    <!-- Generator: sketchtool 55.2 (78181) - https://sketchapp.com -->
    <title>41085E44-1C68-4ED8-936A-5FFDBB671E16@2x</title>
    <desc>Created with sketchtool.</desc>
    <g id="[LITE]-Home" stroke="none" stroke-width="1" fill="none" fill-rule="evenodd" opacity="0.641624814">
        <g id="4---Home---More-menu-open" transform="translate(-24.000000, -189.000000)">
            <g id="Today's-Pulls" transform="translate(8.000000, 152.000000)">
                <g id="Cards/Mobile/Task" transform="translate(0.615911, 0.000000)">
                    <g id="03_Iconography/Food/Bread_Dark" transform="translate(12.000000, 33.920000)">
                        <g id="breakfast_sammy" transform="translate(4.000000, 4.000000)">
                            <path d="M23.3259413,18.2866667 C23.3456534,18.0960639 23.3456534,17.9039361 23.3259413,17.7133333" id="Path"></path>
                            <path d="M12.6397905,6.14 L12.6397905,6.14 L12.6397905,6.14 L12.6397905,6.14 L12.6397905,6.14 C12.6397905,6.14 12.6397905,6.14 12.6397905,6.14 L12.6397905,6.14 C12.627196,6.11016352 12.627196,6.07650315 12.6397905,6.04666667 C12.632382,5.98466497 12.632382,5.9220017 12.6397905,5.86 L12.6397905,5.86 C12.6799705,5.8954355 12.7029887,5.94642656 12.7029887,6 C12.7029887,6.05357344 12.6799705,6.1045645 12.6397905,6.14 L12.6397905,6.14 Z" id="Path" fill="#000000" fill-rule="nonzero"></path>
                            <path d="M17.1100036,4.05348838 C17.0430951,4.0880709 16.9606605,4.0880709 16.893752,4.05348838 L16.893752,4.05348838 C16.0543179,3.77007083 15.1477959,3.68381925 14.2605718,3.80295287 C13.8451759,3.90772282 13.4593121,4.09014525 13.1284314,4.33818782 C12.7926816,4.59601801 12.4897872,4.8862751 12.2252633,5.20367413 L12.1234979,5.3175539 L12.1234979,5.3175539 C12.0889541,5.33859314 12.0435556,5.33859314 12.0090118,5.3175539 L12.0090118,5.3175539 C11.9969961,5.29207061 11.9969961,5.26332135 12.0090118,5.23783806 C12.0019438,5.18488251 12.0019438,5.13136192 12.0090118,5.07840637 C12.0656081,4.62004364 12.2492615,4.18160987 12.5432803,3.80295287 C12.8873872,3.33271593 13.3981524,2.97974783 13.9934375,2.80081083 C15.185992,2.44720812 16.4978767,2.80822374 17.2626517,3.70046107 C17.3294862,3.75771127 17.3512779,3.84533897 17.3178855,3.92256507 C17.2844932,3.99979116 17.2024765,4.05144493 17.1100036,4.05348838 L17.1100036,4.05348838 Z" id="Path" fill="#000000" fill-rule="nonzero"></path>
                            <path d="M17.2520325,7.97547877 C17.1758892,8.00817374 17.0842734,8.00817374 17.0081301,7.97547877 L17.0081301,7.97547877 C15.9105691,7.47787114 14.9756098,6.89372306 14.0271003,6.46102077 C13.5528455,6.2771223 12.9430894,6.10404139 12.401084,5.94177803 C11.8484111,5.76665721 11.2611232,5.67142147 10.6666667,5.66052155 L10.6666667,5.66052155 C10.6666667,5.66052155 10.6666667,5.66052155 10.6666667,5.66052155 L10.6666667,5.66052155 L10.6666667,5.66052155 L10.6666667,5.66052155 C10.7328009,5.62004423 10.8057961,5.58726473 10.8834688,5.56316353 C11.3957881,5.37494191 11.9620982,5.30021371 12.5230352,5.34681239 C13.1946619,5.37556962 13.8570239,5.48497388 14.4878049,5.67133911 C15.7240629,6.10464227 16.7309512,6.87019932 17.3333333,7.83485053 C17.3317564,7.88868481 17.3023244,7.93959415 17.2520325,7.97547877 L17.2520325,7.97547877 Z" id="Path" fill="#000000" fill-rule="nonzero"></path>
                            <path d="M14.6666667,5.54811754 L14.6666667,5.54811754 C14.6666667,5.54811754 14.6666667,5.54811754 14.6666667,5.54811754 C14.6313056,5.55845431 14.5920465,5.55845431 14.5566854,5.54811754 L14.5566854,5.54811754 C13.2186879,5.24114053 11.831283,5.07144433 10.4323885,5.04366674 C9.82289036,5.10264463 9.24464031,5.28011258 8.75517447,5.55841246 C8.20160276,5.84340314 7.7100691,6.19065252 7.29792291,6.5879039 L7.29792291,6.5879039 C7.23314284,6.63823364 7.14381162,6.66666667 7.05046509,6.66666667 C6.95711857,6.66666667 6.86778735,6.63823364 6.80300728,6.5879039 C6.69078453,6.52699731 6.64135447,6.42006325 6.67927837,6.32023612 C6.90323699,5.79143725 7.29472676,5.31106788 7.82033384,4.92012777 C8.45911239,4.43291335 9.29548379,4.11794537 10.1986784,4.02447021 C11.0598149,3.95010396 11.9319438,4.0459382 12.7282471,4.3024329 C13.4569901,4.53827899 14.1089002,4.88948907 14.6391714,5.33192434 C14.6315327,5.37979701 14.6315327,5.42818048 14.6391714,5.47605314 C14.6343746,5.50190235 14.6443577,5.5280678 14.6666667,5.54811754 L14.6666667,5.54811754 Z" id="Path" fill="#000000" fill-rule="nonzero"></path>
                            <path d="M23.1895674,9.56059874 L23.1895674,7.4167069 C23.195192,7.34729419 23.195192,7.27752473 23.1895674,7.20811202 C23.0195559,3.21004346 18.134559,0 12.0368136,0 C5.93906808,0 1.05407124,3.21004346 0.895393852,7.20811202 C0.889769191,7.27752473 0.889769191,7.34729419 0.895393852,7.4167069 L0.895393852,9.56059874 C0.317354783,10.2790922 0,10.4297441 0,11.310478 L0,14.5205215 C0.0248862062,15.3741283 0.337154138,16.1927946 0.884059753,16.8382424 L0.884059753,18.3215838 C0.867303382,18.4872453 0.867303382,18.6542322 0.884059753,18.8198938 L0.884059753,18.8198938 C1.37142603,21.7633993 6.07507727,24 11.9914772,24 C17.907877,24 22.6115283,21.7633993 23.0988946,18.8198938 L23.0988946,18.8198938 L23.0988946,18.3215838 L23.0988946,16.8614196 C23.6458002,16.2159718 23.9580681,15.3973056 23.9829543,14.5436987 L23.9829543,11.310478 C24.0736271,10.4297441 23.8016087,10.2790922 23.1895674,9.56059874 Z M2.01746972,7.32399778 C2.02837784,7.05108219 2.06250907,6.77965618 2.11947662,6.5127955 C2.82219079,3.47658125 7.00447351,1.15886045 12.0368137,1.15886045 C17.0691539,1.15886045 21.2514366,3.47658125 21.9541508,6.5127955 C22.0111183,6.77965618 22.0452495,7.05108219 22.0561577,7.32399778 L22.0561577,9.1434086 C22.0618044,9.2205581 22.0618044,9.29803119 22.0561577,9.37518068 C22.0117321,9.69182654 21.9036802,9.99564156 21.7388029,10.2675032 C21.7054993,10.0525466 21.6600873,9.83973485 21.6027937,9.63012997 C21.4579905,8.96896817 21.0885028,8.38175979 20.5600565,7.9729596 C20.5233337,7.94397115 20.4721043,7.94397115 20.4353814,7.9729596 C20.3897528,8.00274523 20.3748275,8.06378698 20.4013791,8.11202285 C20.7572266,8.56772952 20.9385404,9.14036361 20.9114136,9.7228388 C20.9343019,10.0120813 20.9343019,10.3027416 20.9114136,10.5919841 C20.8704996,10.8503291 20.8137167,11.1057837 20.7414021,11.356832 L20.5940588,11.472718 C20.4701519,11.5682489 20.3415295,11.657212 20.2086994,11.7392559 C19.812331,11.9816471 19.3994656,12.1946516 18.9732826,12.3766291 C18.9786664,12.2917352 18.9786664,12.2065738 18.9732826,12.1216798 C18.9403319,11.788662 18.8796636,11.4591241 18.791937,11.1366485 C18.6471338,10.4754867 18.2776461,9.88827831 17.7491998,9.47947812 C17.7085865,9.46325895 17.6623811,9.47522585 17.6342172,9.50925792 C17.6060532,9.54329 17.6021584,9.59186198 17.6245247,9.63012997 C17.9839638,10.0883567 18.165555,10.6659929 18.1345592,11.2525345 C18.1439587,11.5434552 18.1249747,11.8346094 18.0778887,12.1216798 C18.0408133,12.3483087 17.9916252,12.5726911 17.9305454,12.7938189 C17.5338519,12.9212935 17.1144903,13.0487682 16.6837945,13.141477 C15.5440612,13.4102337 14.3835967,13.5769673 13.21556,13.639787 C12.8415348,13.639787 12.4675095,13.639787 12.0821501,13.639787 C11.6967907,13.639787 11.3227654,13.639787 10.9487401,13.639787 C9.7807035,13.5769673 8.620239,13.4102337 7.48050569,13.141477 C7.06697907,13.0515531 6.65838305,12.9393739 6.25642294,12.8054075 C6.19416306,12.5806689 6.14496266,12.3523608 6.10907965,12.1216798 C6.08657971,11.8324214 6.08657971,11.5417929 6.10907965,11.2525345 C6.08090006,10.6699161 6.26233148,10.0969105 6.61911412,9.64171858 C6.64746594,9.60417113 6.64746594,9.55179138 6.61911412,9.51424393 C6.6040708,9.4947073 6.58109532,9.48330383 6.55677658,9.48330383 C6.53245784,9.48330383 6.50948235,9.4947073 6.49443903,9.51424393 C5.96321258,9.92251282 5.58993749,10.5093616 5.44036777,11.1714143 C5.3526412,11.4938899 5.29197283,11.8234278 5.25902218,12.1564456 C5.25902218,12.2375659 5.25902218,12.3302747 5.25902218,12.4113949 C4.8224617,12.2364453 4.40152936,12.0231918 4.00093714,11.7740217 L3.62691185,11.5190724 C3.63226445,11.5001458 3.63226445,11.4800561 3.62691185,11.4611294 C3.54156775,11.1885475 3.47714585,10.9095751 3.43423216,10.6267499 C3.38676694,10.339725 3.36778039,10.0485317 3.37756166,9.75760462 C3.30955758,9.17799763 3.45059834,8.59292601 3.77425515,8.11202285 C3.79662153,8.07375485 3.79272666,8.02518288 3.7645627,7.9911508 C3.73639875,7.95711872 3.6901934,7.94515182 3.64958005,7.961371 C3.11888915,8.37306115 2.74916972,8.96474682 2.6068429,9.63012997 C2.53657669,9.89275334 2.48356596,10.1598872 2.44816551,10.4297436 C2.22480635,10.1193356 2.08067154,9.75688177 2.02880382,9.37518068 C2.0231571,9.29803119 2.0231571,9.2205581 2.02880382,9.1434086 L2.01746972,7.32399778 Z M12.0368139,22.8759054 C6.60778013,22.8759054 2.01746974,20.8015452 2.01746974,18.3447611 C2.01186953,18.3024624 2.01186953,18.2595851 2.01746974,18.2172864 C2.01190628,18.1401338 2.01190628,18.062667 2.01746974,17.9855143 C4.15961459,19.5963303 7.7978606,20.6393047 12.0028116,20.6393047 C16.2077626,20.6393047 19.8460086,19.5963303 21.9881534,17.9855143 C21.9937169,18.062667 21.9937169,18.1401338 21.9881534,18.2172864 C21.9937537,18.2595851 21.9937537,18.3024624 21.9881534,18.3447611 C22.056158,20.8594882 17.4658477,22.8759054 12.0368139,22.8759054 L12.0368139,22.8759054 Z M22.9402183,14.5205211 C22.9381094,14.7323728 22.907601,14.9429285 22.8495455,15.1463057 C22.73846,15.4996323 22.5656551,15.8294447 22.339511,16.1197485 C22.2488382,16.224046 22.1581654,16.339932 22.0561585,16.4442295 L21.7954742,16.6991788 C21.709267,16.7781633 21.6184253,16.8516945 21.5234558,16.9193623 C19.6306611,18.4374695 16.0377514,19.480444 12.0368141,19.480444 C8.0358768,19.480444 4.4429671,18.4374695 2.5501724,16.9193623 C2.45131966,16.8520863 2.35668368,16.7785479 2.2668199,16.6991788 L2.0061356,16.4442295 C1.9041287,16.339932 1.8134559,16.224046 1.7227831,16.1197485 C1.49663898,15.8294447 1.32383405,15.4996323 1.2127486,15.1463057 C1.15852386,14.9423845 1.13183029,14.7318387 1.1333437,14.5205211 L1.1333437,13.906325 L1.1900804,13.964268 L1.3034214,14.0685655 C1.57547276,14.3427208 1.87138181,14.5909699 2.1874812,14.8102362 L2.6975157,15.1578943 C3.06165428,15.3811726 3.44034688,15.5786426 3.8309257,15.7489132 C6.42374438,16.8763969 9.2196716,17.4331344 12.0368141,17.3829065 C14.8608452,17.4411101 17.6650074,16.8882202 20.2653707,15.7605018 C20.6559495,15.5902312 21.0346421,15.3927612 21.3987807,15.169483 L21.9088152,14.8334134 C22.222547,14.6066612 22.5181636,14.3547823 22.792875,14.0801541 L22.906216,13.9758567 L22.906216,13.9179136 L22.9402183,14.5205211 Z M22.9402169,11.8319653 C22.8308326,12.2304648 22.6417179,12.6014028 22.384846,12.9212941 L22.1468299,13.187832 C21.8911315,13.4629946 21.6059883,13.7078932 21.2967725,13.917914 C21.0013573,14.1307851 20.6906797,14.3206025 20.3673763,14.4857556 C19.9265696,14.7266795 19.4680335,14.9320359 18.9959503,15.0999516 C16.7779314,15.8912443 14.4425212,16.2833381 12.0934839,16.258812 C9.74444657,16.2833381 7.40903638,15.8912443 5.19101745,15.0999516 C4.7189343,14.9320359 4.26039813,14.7266795 3.81959144,14.4857556 C3.47646842,14.3195095 3.14675036,14.1257613 2.83352481,13.9063254 C2.52430897,13.6963046 2.23916583,13.451406 1.98346737,13.1762434 L1.74545128,12.9097055 C1.48857942,12.5898142 1.29946467,12.2188762 1.19008042,11.8203767 C1.15519405,11.6526698 1.13621594,11.4819124 1.13338804,11.3104781 C1.13233788,11.0738102 1.17066535,10.8386815 1.24675092,10.6151619 C1.37616469,10.8745211 1.53192236,11.1192302 1.71144899,11.3452439 C1.95381122,11.6412301 2.22327574,11.9128649 2.51617003,12.1564462 L2.85619301,12.4229841 C3.18750823,12.6655109 3.53605411,12.8824333 3.89893014,13.0719459 C4.38855391,13.3417462 4.90058936,13.5666715 5.42903354,13.744085 C6.0825227,13.9945692 6.75301421,14.1959729 7.4351691,14.3466924 C8.42885826,14.558388 9.43661364,14.6939649 10.4500395,14.7522935 L10.4500395,14.7522935 L11.19809,14.7522935 L12.0028111,14.7522935 L12.8075321,14.7522935 L13.5555827,14.7522935 L13.5555827,14.7522935 C14.5690085,14.6939649 15.5767639,14.558388 16.5704531,14.3466924 C17.252608,14.1959729 17.9230995,13.9945692 18.5765887,13.744085 C19.1050328,13.5666715 19.6170683,13.3417462 20.106692,13.0719459 C20.4695681,12.8824333 20.818114,12.6655109 21.1494292,12.4229841 L21.4894522,12.1564462 C21.7853132,11.9119576 22.0550539,11.6361599 22.2941732,11.3336553 C22.4735768,11.1117017 22.6293544,10.870846 22.7588713,10.6151619 C22.8349568,10.8386815 22.8732843,11.0738102 22.8722123,11.3104781 C22.8926569,11.4835102 22.8964531,11.6581755 22.8835464,11.8319653 L22.9402169,11.8319653 Z" id="Shape" fill="#000000" fill-rule="nonzero"></path>
                        </g>
                    </g>
                </g>
            </g>
        </g>
    </g>
</svg>