<?xml version="1.0" encoding="UTF-8"?>
<svg width="26px" height="20px" viewBox="0 0 26 20" version="1.1" xmlns="http://www.w3.org/2000/svg" xmlns:xlink="http://www.w3.org/1999/xlink">
    <!-- Generator: sketchtool 55.2 (78181) - https://sketchapp.com -->
    <title>2D56C649-4ACE-48B3-BAD4-E52175BBDEDC</title>
    <desc>Created with sketchtool.</desc>
    <g id="[LITE]-Home" stroke="none" stroke-width="1" fill="none" fill-rule="evenodd" opacity="0.600000024">
        <g id="6---Home----3hr-In-Progress" transform="translate(-23.000000, -192.000000)">
            <g id="Today's-Pulls" transform="translate(7.500000, 128.000000)">
                <g id="Cards/Mobile/Task-Copy" transform="translate(0.500000, 24.000000)">
                    <g id="03_Iconography/Food/Bread_Dark" transform="translate(12.000000, 33.920000)">
                        <g id="Icons/Food/Bagel">
                            <rect id="Bounds" fill="#D8D8D8" opacity="0" x="0" y="0" width="32" height="32"></rect>
                            <g id="Layer_1" transform="translate(4.000000, 6.666667)" stroke="#000000" stroke-linecap="round" stroke-linejoin="round">
                                <g id="Group">
                                    <ellipse id="Oval" cx="11.9999998" cy="9.33333309" rx="11.5999997" ry="8.93333308"></ellipse>
                                    <path d="M23.4666677,8.13333321 C23.4666677,9.33333316 22.000001,9.9999998 21.2000009,10.9333331 C20.5333342,11.7333331 20.1333342,13.1999997 18.9333342,13.733333 C18.0000008,14.133333 16.5333341,13.4666663 15.333334,13.733333 C14.2666673,13.8666663 13.2000006,15.0666663 12.0000005,15.0666663 C10.8000005,15.0666663 9.73333375,13.8666663 8.66666704,13.733333 C7.46666698,13.4666663 6.00000025,14.133333 5.06666688,13.733333 C3.86666682,13.1999997 3.60000014,11.7333331 2.80000011,10.9333331 C2.00000007,9.9999998 0.533333341,9.33333316 0.533333341,8.13333321" id="Shape"></path>
                                    <path d="M12.5333328,7.73333327 C12.5333328,6.13333324 13.8666662,4.79999987 15.4666662,4.79999987" id="Shape"></path>
                                    <path d="M9.59999975,4.9333334 C11.1999998,4.9333334 12.5333331,6.26666676 12.5333331,7.86666679" id="Shape"></path>
                                    <path d="M12.5333328,8.26666677 C12.5333328,8.26666677 14.5333329,6.93333343 16.3999996,8.26666677" id="Shape"></path>
                                </g>
                            </g>
                        </g>
                    </g>
                </g>
            </g>
        </g>
    </g>
</svg>