<?xml version="1.0" encoding="UTF-8"?>
<svg width="20px" height="20px" viewBox="0 0 20 20" version="1.1" xmlns="http://www.w3.org/2000/svg" xmlns:xlink="http://www.w3.org/1999/xlink">
    <!-- Generator: sketchtool 55.2 (78181) - https://sketchapp.com -->
    <title>AA67283D-969C-4AC5-82BC-C81597C37439</title>
    <desc>Created with sketchtool.</desc>
    <g id="[LITE]-Home" stroke="none" stroke-width="1" fill="none" fill-rule="evenodd">
        <g id="2---Home----Completed-Pull-Chip" transform="translate(-26.000000, -462.000000)">
            <g id="Cards/Mobile/Completed-Task" transform="translate(8.000000, 424.000000)">
                <g id="icons/checks/tickets" transform="translate(18.000000, 38.000000)">
                    <g>
                        <circle id="Oval" fill="#006241" cx="10" cy="10" r="10"></circle>
                        <g id="icons/checks/white" transform="translate(4.000000, 6.000000)" fill="#FFFFFF">
                            <path d="M3.66805462,6.7700207 L10.3683,0.27060085 C10.7413,-0.0902002834 11.3493,-0.0902002834 11.7213,0.27060085 C12.0933,0.631401984 12.0933,1.22206836 11.7213,1.58189959 L4.3523,8.73002958 C4.16577412,8.91045388 3.91966274,9.00041097 3.67371982,8.99990085 C3.4239138,9.00341543 3.17305552,8.91349067 2.984,8.73012657 L0.279,6.10655919 C-0.093,5.74575805 -0.093,5.15509168 0.279,4.79526044 L0.279,4.79429055 C0.651,4.43445931 1.259,4.43445931 1.631,4.79429055 L3.66805462,6.7700207 Z"></path>
                        </g>
                    </g>
                </g>
            </g>
        </g>
    </g>
</svg>