<?xml version="1.0" encoding="UTF-8"?>
<svg width="23px" height="20px" viewBox="0 0 23 20" version="1.1" xmlns="http://www.w3.org/2000/svg" xmlns:xlink="http://www.w3.org/1999/xlink">
    <!-- Generator: sketchtool 55.2 (78181) - https://sketchapp.com -->
    <title>D891EDA7-E0C1-4C21-9072-B7681009EF82</title>
    <desc>Created with sketchtool.</desc>
    <g id="[LITE]-Home" stroke="none" stroke-width="1" fill="none" fill-rule="evenodd" opacity="0.600000024">
        <g id="1---Home-Default" transform="translate(-24.000000, -432.000000)">
            <g id="Emergency-Pulls" transform="translate(7.500000, 392.000000)">
                <g id="Cards/Mobile/Task-Copy" transform="translate(0.500000, 0.000000)">
                    <g id="03_Iconography/Food/Bread_Dark" transform="translate(12.000000, 33.920000)">
                        <g id="Icons/Food/Bread">
                            <rect id="Bounds" fill="#D8D8D8" opacity="0" x="0" y="0" width="32" height="32"></rect>
                            <g id="Layer_1" transform="translate(4.000000, 6.666667)" stroke="#000000" stroke-linecap="round" stroke-linejoin="round">
                                <g id="Group">
                                    <path d="M20.5333339,5.46666667 C20.5333339,2.4 16.1333337,0 10.8000003,0 C5.4666668,0 1.06666668,2.4 1.06666668,5.46666667 C1.06666668,6.53333333 1.60000003,7.6 2.66666672,8.53333333 L2.66666672,15.4666667 C2.66666672,16.8 3.73333342,18 5.20000012,18 L16.5333338,18 C17.8666671,18 19.0666672,16.9333333 19.0666672,15.4666667 L19.0666672,8.53333333 C19.8666672,7.6 20.5333339,6.53333333 20.5333339,5.46666667 L20.5333339,5.46666667 Z" id="Shape"></path>
                                    <path d="M15.7333332,18 L18.1333332,18 C19.4666665,18 20.6666664,16.9333333 20.6666664,15.4666667 L20.6666664,8.53333333 C21.7333331,7.73333333 22.2666664,6.66666667 22.2666664,5.46666667 C22.2666664,2.4 17.8666665,0 12.5333333,0 L9.33333333,0" id="Shape"></path>
                                </g>
                            </g>
                        </g>
                    </g>
                </g>
            </g>
        </g>
    </g>
</svg>