<svg width="68" height="68" viewBox="0 0 68 68" fill="none" xmlns="http://www.w3.org/2000/svg">
<path d="M55.824 24.6381L51.856 19.1821V13.3541C51.856 12.8581 51.422 12.4241 50.926 12.4241H17.26C16.764 12.4241 16.33 12.8581 16.33 13.3541V19.1821L12.176 24.6381C11.99 24.9481 11.928 25.3201 12.114 25.6301C12.238 25.9401 12.61 26.1261 12.92 26.1261H16.33V54.0881H14.284C13.788 54.0881 13.354 54.5221 13.354 55.0181C13.354 55.5141 13.788 55.9481 14.284 55.9481H53.964C54.46 55.9481 54.894 55.5141 54.894 55.0181C54.894 54.5221 54.46 54.0881 53.964 54.0881H51.918V26.1261H55.08C55.452 26.1261 55.762 25.9401 55.886 25.6301C56.072 25.3201 56.01 24.9481 55.824 24.6381ZM18.19 14.2841H50.058V18.5621H18.19V14.2841ZM45.842 24.2661H39.58L38.96 20.4221H44.106L45.842 24.2661ZM37.72 24.2661H30.28L30.962 20.4221H37.1L37.72 24.2661ZM29.04 20.4221L28.42 24.2661H22.406L24.204 20.4221H29.04ZM14.78 24.2661L17.694 20.4221H22.096L20.298 24.2661H14.78ZM22.716 54.0881V39.3941H29.908V54.0881H22.716ZM29.97 37.5341H22.716V34.0001C22.716 32.0161 24.328 30.4041 26.312 30.4041C28.296 30.4041 29.908 32.0161 29.908 34.0001V37.5341H29.97ZM49.996 54.0881H31.83V34.0001C31.83 30.9621 29.35 28.5441 26.374 28.5441C23.336 28.5441 20.918 31.0241 20.918 34.0001V54.0881H18.19V26.1261H50.058V54.0881H49.996ZM47.888 24.2661L46.152 20.4221H50.492L53.282 24.2661H47.888Z" fill="#6B6B6B"/>
<path d="M46.896 28.5441H35.984C35.488 28.5441 35.054 28.9781 35.054 29.4741V50.7401C35.054 51.2361 35.488 51.6701 35.984 51.6701H46.896C47.392 51.6701 47.826 51.2361 47.826 50.7401V29.4741C47.826 28.9161 47.454 28.5441 46.896 28.5441ZM45.966 49.8101H36.914V34.9301H45.966V49.8101ZM45.966 33.0701H36.914V30.4041H45.966V33.0701Z" fill="#6B6B6B"/>
<path d="M24.576 48.694C24.08 48.694 23.646 48.26 23.646 47.764V45.47C23.646 44.974 24.08 44.54 24.576 44.54C25.072 44.54 25.506 44.974 25.506 45.47V47.764C25.506 48.26 25.072 48.694 24.576 48.694Z" fill="#6B6B6B"/>
</svg>