<svg width="71" height="72" viewBox="0 0 71 72" fill="none" xmlns="http://www.w3.org/2000/svg">
<path d="M35.5 70.5226C55.1061 70.5226 71 54.9595 71 35.7613C71 16.5632 55.1061 1 35.5 1C15.8939 1 0 16.5632 0 35.7613C0 54.9595 15.8939 70.5226 35.5 70.5226Z" fill="white"/>
<path d="M39.0697 16.0246C36.7074 15.6255 34.2926 15.6255 31.9303 16.0246C31.7528 16.0246 31.6838 15.8894 31.8218 15.7929L35.5 13.0506L39.1782 15.7929C39.3162 15.8894 39.2472 16.0633 39.0697 16.0246ZM32.9262 33.2411C32.8725 33.2615 32.8237 33.2927 32.7829 33.3326C32.7422 33.3725 32.7104 33.4203 32.6896 33.4729C33.4292 34.0329 33.9419 35.3075 35.5 35.3075C37.0581 35.3075 37.5708 34.0329 38.3104 33.4729C38.2896 33.4203 38.2578 33.3725 38.2171 33.3326C38.1763 33.2927 38.1275 33.2615 38.0738 33.2411C37.2259 33.4019 36.3634 33.4763 35.5 33.4632C34.6365 33.4771 33.7739 33.4027 32.9262 33.2411V33.2411ZM35.5 31.0975C35.0661 31.0975 34.9675 30.9334 34.6815 30.9334C34.3093 30.9457 33.9562 31.0978 33.6954 31.3582C33.7052 31.4582 33.7465 31.5527 33.8138 31.6286C34.4449 31.7252 34.7308 32.0631 35.4606 32.0631C36.1903 32.0631 36.4467 31.7252 37.1074 31.6286C37.1746 31.5527 37.2159 31.4582 37.2257 31.3582C36.9649 31.0978 36.6118 30.9457 36.2396 30.9334C36.0325 30.9334 35.9339 31.0975 35.5 31.0975ZM70.9408 37.6925C70.9408 38.5229 70.8225 39.3533 70.7239 40.1644C66.7006 40.821 65.2608 37.2677 61.1487 37.4898C61.3956 38.3479 61.5964 39.2181 61.7503 40.0969C65.1425 40.0969 66.5132 43.2061 70.29 42.7522C70.0928 43.7178 69.8561 44.6351 69.5701 45.5621C66.6118 45.8518 65.5369 42.9453 62.0856 43.0226C62.0856 43.5054 62.0856 43.9882 62.0856 44.4806C62.0856 44.751 62.0856 45.0214 62.0856 45.2917C65.0439 45.2917 66.03 47.9278 68.801 47.8023C68.4558 48.7679 68.0614 49.6466 67.6275 50.5446C65.6553 50.4383 64.9157 47.8988 61.8489 48.1016C61.7503 48.7486 61.6418 49.3955 61.4939 50.0328C64.1663 49.8493 64.7382 52.2537 66.6414 52.4468C66.1582 53.3158 65.6553 54.1559 65.0833 54.9863C63.9493 54.3876 62.9632 52.6013 60.8233 52.4854C61.0403 51.8288 61.2375 51.1529 61.3953 50.4673C59.1928 50.4282 57.0839 49.5884 55.4786 48.1113C56.0604 44.8089 50.834 41.4583 50.834 39.0444C50.834 36.4179 52.1949 34.9696 52.1949 31.4258C52.0968 28.6402 50.9315 25.9928 48.9308 24.0101C48.5666 23.6428 48.1595 23.3187 47.7179 23.0445C49.6641 25.1978 50.7894 27.9442 50.9031 30.8175C50.9031 34.1488 49.3154 35.9062 49.3154 38.9864C49.3154 42.0667 53.9107 44.7124 53.9107 47.8795C53.9107 49.1348 53.5064 50.3514 52.1653 52.7075C53.8728 54.4745 56.1723 55.5815 58.644 55.8263C58.8645 55.8592 59.0899 55.8179 59.2833 55.7092C59.4767 55.6004 59.6268 55.4307 59.709 55.2277C59.8767 54.8511 60.0443 54.4745 60.2021 54.0979C62.0658 54.1655 62.9139 55.8263 63.9493 56.4926C63.3872 57.2361 62.7857 57.9507 62.1644 58.6555C61.4742 57.9024 60.5472 56.6374 59.2061 56.2898C58.9694 56.7533 58.7032 57.2071 58.4369 57.661C59.6104 57.97 60.4092 59.1287 61.0304 59.8915C60.3599 60.5674 59.6696 61.2144 58.9399 61.8227C58.4353 61.0159 57.7634 60.3218 56.9676 59.7853C56.6817 60.1715 56.376 60.5481 56.0604 60.915C56.7464 61.4363 57.3112 62.0946 57.7171 62.8462C56.8789 63.5125 56.0111 64.1304 55.1137 64.7195C54.67 61.1854 49.7493 58.7714 51.0806 54.6676C50.5065 55.4677 50.1656 56.4057 50.0944 57.381C50.0944 60.3453 53.319 62.7014 53.5754 65.6464C52.9049 66.0423 52.2244 66.4092 51.5243 66.7569C51.406 63.5125 47.994 59.9977 47.994 57.3134C47.994 54.349 51.9385 51.3653 51.9385 47.8602C51.9385 44.3551 47.3531 41.9315 47.3531 38.8609C47.3531 35.7903 49.3253 34.0329 49.3253 30.074C49.3092 28.6145 48.9836 27.1742 48.3691 25.8444C47.7546 24.5147 46.8646 23.3245 45.7556 22.3493C45.387 22.0282 44.9796 21.7526 44.5426 21.5285C46.5839 23.9232 47.7672 26.1054 47.7672 29.3981C47.7672 33.106 45.5386 35.1916 45.5386 38.7933C45.5386 42.395 50.0944 44.4517 50.0944 47.8602C50.0944 51.2688 45.9133 54.1076 45.9133 57.5741C45.9133 60.7316 49.6014 63.889 49.6606 67.6452C48.8519 67.9832 48.0335 68.3018 47.1953 68.6108C47.6686 64.816 43.5171 60.8861 43.5171 57.8155C43.5171 54.4359 47.856 51.5295 47.856 47.8795C47.856 44.2296 43.4382 42.5205 43.4382 38.774C43.4382 35.0275 46.15 32.9804 46.15 28.8284C46.1397 27.2977 45.7739 25.7894 45.0803 24.4176C44.3866 23.0458 43.3834 21.8465 42.1464 20.9105L41.9985 20.8043C41.7717 20.6402 41.5942 20.8043 41.7519 21.0264C43.5117 23.0278 44.4468 25.5993 44.375 28.2394C44.375 32.0148 41.2687 35.0951 41.2687 38.7547C41.2687 43.0805 45.44 44.3165 45.44 47.8602C45.44 51.4039 40.9236 54.2428 40.9236 57.97C40.9236 61.4654 45.154 65.3471 44.4243 69.3736C43.5762 69.586 42.7183 69.7792 41.8407 69.9337C42.6394 64.9512 38.4583 61.3399 38.4583 58.0665C38.4583 54.5035 43.1029 51.3074 43.1029 47.8602C43.1029 44.5869 39.7699 43.515 39.336 40.1355C39.3275 40.0217 39.2941 39.9111 39.2379 39.8111C39.1817 39.7112 39.1041 39.6243 39.0105 39.5565C38.9168 39.4886 38.8093 39.4414 38.6953 39.418C38.5813 39.3946 38.4634 39.3956 38.3499 39.4209C37.4309 39.7405 36.4725 39.9386 35.5 40.0099C34.4925 39.9553 33.4973 39.7669 32.5417 39.4499C32.4281 39.4246 32.3102 39.4236 32.1962 39.4469C32.0822 39.4703 31.9747 39.5176 31.881 39.5854C31.7874 39.6533 31.7098 39.7402 31.6536 39.8401C31.5975 39.94 31.564 40.0507 31.5556 40.1644C31.1217 43.515 27.7886 44.5869 27.7886 47.8892C27.7886 51.3653 32.4233 54.5325 32.4233 58.0955C32.4233 61.3688 28.2718 64.9802 29.0607 70.0012C28.1929 69.8467 27.335 69.6536 26.4869 69.4412C25.846 65.3857 30.0764 61.504 30.0764 57.97C30.0764 54.2042 25.5994 51.375 25.5994 47.8216C25.5994 44.2682 29.7806 42.9936 29.7806 38.7161C29.7806 35.0565 26.6644 31.9569 26.6644 28.2008C26.5817 25.5658 27.5026 22.9948 29.2481 20.9878C29.4058 20.7947 29.2481 20.6015 29.0015 20.7657L28.8437 20.8719C27.6097 21.8098 26.6091 23.0098 25.9173 24.3813C25.2255 25.7528 24.8606 27.2601 24.85 28.7898C24.85 32.9225 27.5618 34.9985 27.5618 38.7354C27.5618 42.4722 23.144 44.1813 23.144 47.8216C23.144 51.4619 27.4829 54.378 27.4829 57.7575C27.4829 60.8474 23.3314 64.7581 23.8047 68.5529C22.9665 68.2632 22.1481 67.9445 21.3394 67.5873C21.3986 63.8311 25.0768 60.6736 25.0768 57.5161C25.0768 54.04 20.9056 51.1915 20.9056 47.8023C20.9056 44.413 25.3924 42.4046 25.3924 38.774C25.3924 35.1434 23.1637 33.0866 23.1637 29.3788C23.1637 26.0861 24.3471 23.9039 26.3883 21.5092C25.9499 21.7309 25.5423 22.0068 25.1754 22.33C24.0664 23.3051 23.1764 24.4954 22.5619 25.8251C21.9473 27.1549 21.6217 28.5952 21.6057 30.0547C21.6057 33.9943 23.5779 35.7613 23.5779 38.8416C23.5779 41.9218 18.9925 44.3358 18.9925 47.8409C18.9925 51.346 22.9369 54.3297 22.9369 57.294C22.9369 59.9591 19.5151 63.4932 19.4067 66.7375C18.7065 66.3899 18.0261 66.023 17.3556 65.6271C17.6119 62.6821 20.8365 60.326 20.8365 57.3616C20.7653 56.3863 20.4245 55.4484 19.8504 54.6483C21.1817 58.7521 16.261 61.1661 15.8172 64.7001C14.9199 64.1111 14.0521 63.4932 13.2139 62.8269C13.6198 62.0753 14.1845 61.4169 14.8706 60.8957C14.555 60.5288 14.2493 60.1522 13.9535 59.766C13.1616 60.3069 12.4906 61.0001 11.9812 61.8034C11.2614 61.1757 10.5612 60.5288 9.90056 59.8722C10.5218 59.1094 11.3206 57.941 12.494 57.6417C12.2179 57.1878 11.9615 56.734 11.7249 56.2705C10.3542 56.6181 9.42722 57.8831 8.76653 58.6362C8.14528 57.9313 7.54375 57.2168 6.98167 56.4733C7.96778 55.807 8.86514 54.1462 10.7289 54.0786C10.8867 54.4552 11.0543 54.8318 11.2219 55.2084C11.3042 55.4114 11.4542 55.5811 11.6477 55.6898C11.8411 55.7986 12.0664 55.8399 12.2869 55.807C14.7587 55.5622 17.0582 54.4552 18.7657 52.6882C17.4246 50.3032 17.0203 49.0865 17.0203 47.8602C17.0203 44.6931 21.6156 42.0667 21.6156 38.9671C21.6156 35.8676 20.0279 34.1391 20.0279 30.7982C20.1488 27.9408 21.2739 25.212 23.2131 23.0735C22.7715 23.3476 22.3644 23.6717 22.0001 24.039C20.013 26.0072 18.8488 28.6315 18.7361 31.3969C18.7361 34.9406 20.0871 36.389 20.0871 39.0154C20.0871 41.4294 14.8607 44.8089 15.4524 48.0823C13.8471 49.5594 11.7382 50.3992 9.53569 50.4383C9.70333 51.1239 9.90056 51.7998 10.1175 52.4564C7.96778 52.5723 6.99153 54.3876 5.8575 54.9573C5.30528 54.1269 4.78264 53.2868 4.28958 52.4178C6.20264 52.2247 6.77458 49.8204 9.44694 50.0038C9.29903 49.3665 9.18069 48.7196 9.09194 48.0726C6.02514 47.8699 5.325 50.4094 3.31333 50.5156C2.87944 49.6176 2.485 48.7099 2.13986 47.7733C4.94042 47.8988 5.90681 45.2338 8.84542 45.2628C8.84542 44.9924 8.84542 44.722 8.84542 44.4517C8.84542 43.9592 8.84542 43.4861 8.84542 42.9936C5.39403 42.9164 4.33889 45.8228 1.35097 45.5331C1.10773 44.6062 0.894074 43.6695 0.71 42.7233C4.48681 43.1771 5.8575 40.0679 9.24972 40.0679C9.40364 39.1892 9.60442 38.3189 9.85125 37.4608C5.72931 37.2773 4.29944 40.7921 0.276111 40.1355C0.1775 39.3244 0.0986111 38.494 0.0493056 37.6925C4.72347 38.2043 6.47875 34.4481 10.7289 34.9116C11.1279 33.9176 11.5923 32.95 12.1193 32.0148C6.78444 31.0782 4.97986 35.4427 0 34.7957C0 25.5765 3.74017 16.7348 10.3977 10.2158C17.0553 3.69677 26.0848 0.0344238 35.5 0.0344238C44.9152 0.0344238 53.9447 3.69677 60.6023 10.2158C67.2598 16.7348 71 25.5765 71 34.7957C66.0694 35.4717 64.2254 31.1072 58.9004 32.0245C59.4274 32.9596 59.8919 33.9272 60.2908 34.9213C64.5212 34.4192 66.2765 38.1753 70.9408 37.6925ZM20.235 23.0831C18.8516 22.5554 17.3588 22.3614 15.8827 22.5177C14.4066 22.674 12.9906 23.176 11.7544 23.9811C11.5698 22.7937 11.1449 21.6542 10.5049 20.6296C9.86484 19.6049 9.02241 18.7156 8.02694 18.0138C7.97733 17.968 7.91392 17.9392 7.8462 17.9317C7.77848 17.9241 7.71009 17.9383 7.65125 17.9719C7.59242 18.0056 7.54631 18.0571 7.51982 18.1186C7.49333 18.1801 7.48789 18.2483 7.50431 18.3131C7.88889 23.508 4.81222 28.0366 0.986111 32.0052C4.93056 33.1542 8.28333 28.2008 13.3815 29.9678C15.2174 27.2823 17.5403 24.9489 20.235 23.0831V23.0831ZM35.5 19.9449C32.2064 19.9449 29.4453 21.7699 28.7156 24.126C28.6663 24.3094 28.7156 24.4253 28.9522 24.3287C29.575 24.067 30.2468 23.9355 30.9244 23.9425C31.5283 23.9161 32.1307 24.021 32.6883 24.2498C33.2458 24.4785 33.7447 24.8253 34.149 25.2654C34.4852 26.3349 34.4852 27.4788 34.149 28.5484C33.5968 28.4228 33.3996 27.998 32.8572 27.998C32.3149 27.998 31.8711 28.3746 30.9836 28.3746C30.0961 28.3746 29.9975 27.9497 29.3565 27.9497C28.7156 27.9497 28.5183 28.6642 28.5183 29.4753C28.5183 33.0673 31.8908 38.0208 35.4803 38.0208C39.0697 38.0208 42.4422 33.0673 42.4422 29.4753C42.4422 28.6642 42.2746 27.9787 41.535 27.8821C41.0978 28.233 40.5412 28.4089 39.9769 28.3746C39.0599 28.3746 38.8133 27.998 38.271 27.998C37.7286 27.998 37.6793 29.3498 36.9101 29.4271C36.4013 28.0909 36.3596 26.6272 36.7918 25.2654C37.1985 24.8256 37.6992 24.4791 38.2583 24.2505C38.8173 24.0218 39.421 23.9167 40.0262 23.9425C40.7039 23.9355 41.3757 24.067 41.9985 24.3287C42.2056 24.4253 42.2844 24.3287 42.2253 24.126C41.5547 21.7699 38.7936 19.9449 35.5 19.9449ZM40.7461 25.1398C40.3231 25.1253 39.9014 25.1948 39.5065 25.3442C39.1116 25.4936 38.7517 25.7196 38.4485 26.0089C38.3815 26.2063 38.3815 26.4197 38.4485 26.6172C39.8882 26.1344 41.1504 26.1151 41.7618 26.7813C41.8941 26.6809 42.0012 26.5521 42.0747 26.4047C42.1482 26.2574 42.1862 26.0956 42.1858 25.9316C42.2056 25.4198 41.7224 25.1398 40.7461 25.1398ZM29.2185 26.7813C29.9087 26.1054 31.3682 26.1344 32.8769 26.6751C32.946 25.9026 31.5556 25.1398 30.2539 25.1398C29.2678 25.1398 28.7944 25.4585 28.7944 25.9316C28.7999 26.089 28.8408 26.2433 28.9141 26.3835C28.9873 26.5237 29.0913 26.6463 29.2185 26.7427V26.7813ZM51.899 14.6149C49.4565 14.7434 47.1172 15.6218 45.2132 17.1254C45.9459 15.0555 46.9397 13.0833 48.1715 11.2546C45.1248 11.4681 42.2534 12.7302 40.0657 14.8176L38.4879 10.7525L41.9985 7.72054L37.3736 7.35361L35.5 3.07604L33.6264 7.35361L28.9226 7.68192L32.4332 10.7139L30.8554 14.779C28.6668 12.693 25.7959 11.4311 22.7496 11.216C23.9986 13.0422 25.009 15.0145 25.7572 17.0868C23.8532 15.5832 21.514 14.7048 19.0714 14.5762C20.6402 16.5152 21.9645 18.6322 23.0158 20.8816C23.0384 20.9399 23.0738 20.9926 23.1196 21.036C23.1653 21.0794 23.2203 21.1125 23.2805 21.1327C23.3407 21.153 23.4048 21.1601 23.4681 21.1534C23.5315 21.1467 23.5925 21.1264 23.6469 21.094C27.3247 19.3073 31.3747 18.3776 35.4803 18.3776C39.5859 18.3776 43.6358 19.3073 47.3136 21.094C47.368 21.1264 47.4291 21.1467 47.4924 21.1534C47.5558 21.1601 47.6198 21.153 47.6801 21.1327C47.7403 21.1125 47.7952 21.0794 47.841 21.036C47.8867 20.9926 47.9221 20.9399 47.9447 20.8816C49.0084 18.6303 50.3461 16.5132 51.9286 14.5762L51.899 14.6149ZM57.6086 29.9678C62.7167 28.2008 66.0694 33.1542 70.0139 32.0052C66.1976 28.0269 63.1111 23.508 63.4957 18.3131C63.5121 18.2483 63.5067 18.1801 63.4802 18.1186C63.4537 18.0571 63.4076 18.0056 63.3487 17.9719C63.2899 17.9383 63.2215 17.9241 63.1538 17.9317C63.0861 17.9392 63.0227 17.968 62.9731 18.0138C61.9803 18.7183 61.1398 19.6084 60.5001 20.6325C59.8603 21.6567 59.4339 22.7948 59.2456 23.9811C58.0094 23.176 56.5934 22.674 55.1173 22.5177C53.6412 22.3614 52.1484 22.5554 50.765 23.0831C53.4585 24.9471 55.7784 27.2809 57.6086 29.9678V29.9678Z" fill="#006241"/>
<path d="M57.4966 71.0002C58.7585 71.0002 60 70.0813 60 68.5002C60 66.9192 58.7585 66.0002 57.4966 66.0002C56.2415 66.0002 55 66.9192 55 68.5002C55 70.0813 56.2415 71.0002 57.4966 71.0002ZM57.4966 70.6421C56.4722 70.6421 55.4003 69.9327 55.4003 68.5002C55.4003 67.0678 56.4722 66.3584 57.4966 66.3584C58.521 66.3584 59.5997 67.0678 59.5997 68.5002C59.5997 69.9327 58.521 70.6421 57.4966 70.6421ZM56.6621 69.9124H57.0149V68.7908H57.4288L58.175 69.9124H58.6024L57.829 68.7638C58.2564 68.6759 58.5414 68.3989 58.5414 67.9057C58.5414 67.3043 58.1004 67.0813 57.517 67.0813H56.6621V69.9124ZM57.5102 68.5002H57.0149V67.3786H57.5102C57.8901 67.3786 58.1479 67.5475 58.1479 67.9327C58.1479 68.3246 57.8969 68.507 57.5102 68.5002Z" fill="#006241"/>
</svg>
