<svg width="68" height="68" viewBox="0 0 68 68" fill="none" xmlns="http://www.w3.org/2000/svg">
<path d="M23.6595 19.5542H23.6496L23.6159 19.6265C23.1933 20.5347 22.4688 21.2683 21.566 21.7022C20.6631 22.1362 19.6377 22.2437 18.6645 22.0064C17.6913 21.7691 16.8304 21.2017 16.2286 20.4008C15.6269 19.6 15.3213 18.6153 15.3642 17.6145C15.407 16.6137 15.7955 15.6587 16.4635 14.9122C17.1315 14.1657 18.0376 13.6739 19.0276 13.5206C20.0175 13.3673 21.03 13.562 21.8925 14.0715C22.755 14.581 23.4141 15.3737 23.7576 16.3147L23.7579 16.3154C23.956 16.8486 24.0463 17.4158 24.0238 17.9841C24.0024 18.526 23.8787 19.0587 23.6595 19.5542ZM25.0075 15.856C24.5576 14.6264 23.6953 13.5909 22.5675 12.9257C21.4396 12.2605 20.116 12.007 18.8222 12.2083C17.5283 12.4096 16.3443 13.0532 15.4718 14.0296C14.5993 15.006 14.0923 16.2547 14.0372 17.563C13.9822 18.8712 14.3824 20.1581 15.1698 21.2044C15.9571 22.2506 17.0829 22.9915 18.3553 23.3008C19.6276 23.6101 20.9679 23.4687 22.1477 22.9007C23.3274 22.3326 24.2737 21.3731 24.8254 20.1857C25.1406 19.5119 25.3191 18.7824 25.3504 18.0392C25.3816 17.2959 25.2651 16.5538 25.0075 15.856Z" fill="#6B6B6B" stroke="#6B6B6B" stroke-width="0.25"/>
<path d="M21.5799 17.1351H20.0849V15.1001C20.0849 14.9237 20.0148 14.7545 19.8901 14.6298C19.7654 14.5051 19.5963 14.4351 19.4199 14.4351C19.2435 14.4351 19.0744 14.5051 18.9497 14.6298C18.8249 14.7545 18.7549 14.9237 18.7549 15.1001V17.8001C18.7549 17.9764 18.8249 18.1456 18.9497 18.2703C19.0744 18.395 19.2435 18.4651 19.4199 18.4651H21.5799C21.7563 18.4651 21.9254 18.395 22.0501 18.2703C22.1748 18.1456 22.2449 17.9764 22.2449 17.8001C22.2449 17.6237 22.1748 17.4545 22.0501 17.3298C21.9254 17.2051 21.7563 17.1351 21.5799 17.1351Z" fill="#6B6B6B" stroke="#6B6B6B" stroke-width="0.25"/>
<mask id="path-3-outside-1" maskUnits="userSpaceOnUse" x="30.8401" y="11.2433" width="26" height="15" fill="black">
<rect fill="white" x="30.8401" y="11.2433" width="26" height="15"/>
<path d="M55.0601 22.12H53.5481L54.2987 19.0096C54.3173 18.9303 54.3177 18.8479 54.3 18.7684C54.2822 18.6889 54.2467 18.6144 54.1961 18.5506C54.1214 18.4642 54.0212 18.4037 53.9099 18.3778L54.0719 17.26H54.5201C54.6633 17.26 54.8007 17.2031 54.9019 17.1019C55.0032 17.0006 55.0601 16.8632 55.0601 16.72C55.0601 16.5768 55.0032 16.4395 54.9019 16.3382C54.8007 16.2369 54.6633 16.18 54.5201 16.18H54.1637C54.1196 15.4805 53.81 14.8242 53.298 14.3454C52.7861 13.8666 52.1106 13.6015 51.4097 13.6042H51.3287L50.9777 12.589C50.9274 12.4586 50.8285 12.3528 50.7018 12.2938C50.5751 12.2347 50.4304 12.2272 50.2982 12.2726C50.166 12.3181 50.0566 12.413 49.993 12.5375C49.9294 12.662 49.9165 12.8063 49.9571 12.94L50.2703 13.8418C50.0044 13.966 49.7602 14.1319 49.5467 14.3332L48.9689 13.7554C48.8656 13.667 48.7327 13.6207 48.5968 13.626C48.4609 13.6312 48.332 13.6876 48.2358 13.7837C48.1396 13.8799 48.0833 14.0088 48.078 14.1447C48.0728 14.2806 48.119 14.4135 48.2075 14.5168L48.9095 15.2188C48.7133 15.6443 48.6261 16.112 48.6557 16.5796L48.9149 18.3616C48.8036 18.3875 48.7034 18.448 48.6287 18.5344C48.5781 18.5982 48.5426 18.6727 48.5248 18.7522C48.507 18.8317 48.5075 18.9141 48.5261 18.9934L49.2659 22.12H45.7451L46.8575 21.2938C46.9666 21.2075 47.0382 21.0824 47.0573 20.9445C47.0764 20.8067 47.0416 20.6668 46.9601 20.554L41.5601 12.6592C41.5191 12.5993 41.4665 12.5482 41.4054 12.5091C41.3442 12.4699 41.2758 12.4435 41.2042 12.4314C41.1327 12.4193 41.0594 12.4218 40.9888 12.4387C40.9181 12.4555 40.8517 12.4865 40.7933 12.5296L39.1355 13.7662C39.047 13.8365 38.9827 13.9329 38.9519 14.0416C38.922 14.0318 38.8913 14.0245 38.8601 14.02H37.2401V13.48C37.2401 13.3368 37.1832 13.1995 37.0819 13.0982C36.9807 12.9969 36.8433 12.94 36.7001 12.94H32.3801C32.2369 12.94 32.0995 12.9969 31.9982 13.0982C31.897 13.1995 31.8401 13.3368 31.8401 13.48V24.82C31.8401 24.9632 31.897 25.1006 31.9982 25.2019C32.0995 25.3031 32.2369 25.36 32.3801 25.36H55.0601C55.2033 25.36 55.3407 25.3031 55.4419 25.2019C55.5432 25.1006 55.6001 24.9632 55.6001 24.82V22.66C55.6001 22.5168 55.5432 22.3795 55.4419 22.2782C55.3407 22.1769 55.2033 22.12 55.0601 22.12ZM50.6375 14.884C50.7038 14.988 50.8038 15.0661 50.9207 15.1054C51.0376 15.1447 51.1644 15.1428 51.2801 15.1C51.3648 15.0688 51.4403 15.0169 51.4997 14.9489C51.5591 14.881 51.6006 14.7993 51.6203 14.7112C52.012 14.7496 52.3775 14.9256 52.6517 15.208C52.8985 15.4764 53.0519 15.8173 53.0891 16.18H52.9001C52.7569 16.18 52.6195 16.2369 52.5182 16.3382C52.417 16.4395 52.3601 16.5768 52.3601 16.72C52.3601 16.8632 52.417 17.0006 52.5182 17.1019C52.6195 17.2031 52.7569 17.26 52.9001 17.26H52.9865L52.8299 18.34H49.9841L49.7141 16.477C49.7081 16.332 49.7208 16.1868 49.7519 16.045C49.8629 16.1065 49.992 16.127 50.1166 16.1028C50.2411 16.0786 50.3532 16.0113 50.4331 15.9127C50.513 15.8141 50.5556 15.6905 50.5535 15.5636C50.5514 15.4368 50.5046 15.3147 50.4215 15.2188L50.3027 15.1C50.405 15.0145 50.5174 14.942 50.6375 14.884ZM49.7249 19.42H53.0945L52.4411 22.12H50.3783L49.7249 19.42ZM39.4001 15.0568L44.2601 22.12H39.4001V15.0568ZM41.0201 13.7338L45.8153 20.7538L45.0215 21.3424L40.2263 14.3224L41.0201 13.7338ZM38.3201 15.1V22.12H37.2401V15.1H38.3201ZM36.1601 22.12H35.0801V14.02H36.1601V22.12ZM34.0001 14.02V22.12H32.9201V14.02H34.0001ZM54.5201 24.28H32.9201V23.2H54.5201V24.28Z"/>
</mask>
<path d="M55.0601 22.12H53.5481L54.2987 19.0096C54.3173 18.9303 54.3177 18.8479 54.3 18.7684C54.2822 18.6889 54.2467 18.6144 54.1961 18.5506C54.1214 18.4642 54.0212 18.4037 53.9099 18.3778L54.0719 17.26H54.5201C54.6633 17.26 54.8007 17.2031 54.9019 17.1019C55.0032 17.0006 55.0601 16.8632 55.0601 16.72C55.0601 16.5768 55.0032 16.4395 54.9019 16.3382C54.8007 16.2369 54.6633 16.18 54.5201 16.18H54.1637C54.1196 15.4805 53.81 14.8242 53.298 14.3454C52.7861 13.8666 52.1106 13.6015 51.4097 13.6042H51.3287L50.9777 12.589C50.9274 12.4586 50.8285 12.3528 50.7018 12.2938C50.5751 12.2347 50.4304 12.2272 50.2982 12.2726C50.166 12.3181 50.0566 12.413 49.993 12.5375C49.9294 12.662 49.9165 12.8063 49.9571 12.94L50.2703 13.8418C50.0044 13.966 49.7602 14.1319 49.5467 14.3332L48.9689 13.7554C48.8656 13.667 48.7327 13.6207 48.5968 13.626C48.4609 13.6312 48.332 13.6876 48.2358 13.7837C48.1396 13.8799 48.0833 14.0088 48.078 14.1447C48.0728 14.2806 48.119 14.4135 48.2075 14.5168L48.9095 15.2188C48.7133 15.6443 48.6261 16.112 48.6557 16.5796L48.9149 18.3616C48.8036 18.3875 48.7034 18.448 48.6287 18.5344C48.5781 18.5982 48.5426 18.6727 48.5248 18.7522C48.507 18.8317 48.5075 18.9141 48.5261 18.9934L49.2659 22.12H45.7451L46.8575 21.2938C46.9666 21.2075 47.0382 21.0824 47.0573 20.9445C47.0764 20.8067 47.0416 20.6668 46.9601 20.554L41.5601 12.6592C41.5191 12.5993 41.4665 12.5482 41.4054 12.5091C41.3442 12.4699 41.2758 12.4435 41.2042 12.4314C41.1327 12.4193 41.0594 12.4218 40.9888 12.4387C40.9181 12.4555 40.8517 12.4865 40.7933 12.5296L39.1355 13.7662C39.047 13.8365 38.9827 13.9329 38.9519 14.0416C38.922 14.0318 38.8913 14.0245 38.8601 14.02H37.2401V13.48C37.2401 13.3368 37.1832 13.1995 37.0819 13.0982C36.9807 12.9969 36.8433 12.94 36.7001 12.94H32.3801C32.2369 12.94 32.0995 12.9969 31.9982 13.0982C31.897 13.1995 31.8401 13.3368 31.8401 13.48V24.82C31.8401 24.9632 31.897 25.1006 31.9982 25.2019C32.0995 25.3031 32.2369 25.36 32.3801 25.36H55.0601C55.2033 25.36 55.3407 25.3031 55.4419 25.2019C55.5432 25.1006 55.6001 24.9632 55.6001 24.82V22.66C55.6001 22.5168 55.5432 22.3795 55.4419 22.2782C55.3407 22.1769 55.2033 22.12 55.0601 22.12ZM50.6375 14.884C50.7038 14.988 50.8038 15.0661 50.9207 15.1054C51.0376 15.1447 51.1644 15.1428 51.2801 15.1C51.3648 15.0688 51.4403 15.0169 51.4997 14.9489C51.5591 14.881 51.6006 14.7993 51.6203 14.7112C52.012 14.7496 52.3775 14.9256 52.6517 15.208C52.8985 15.4764 53.0519 15.8173 53.0891 16.18H52.9001C52.7569 16.18 52.6195 16.2369 52.5182 16.3382C52.417 16.4395 52.3601 16.5768 52.3601 16.72C52.3601 16.8632 52.417 17.0006 52.5182 17.1019C52.6195 17.2031 52.7569 17.26 52.9001 17.26H52.9865L52.8299 18.34H49.9841L49.7141 16.477C49.7081 16.332 49.7208 16.1868 49.7519 16.045C49.8629 16.1065 49.992 16.127 50.1166 16.1028C50.2411 16.0786 50.3532 16.0113 50.4331 15.9127C50.513 15.8141 50.5556 15.6905 50.5535 15.5636C50.5514 15.4368 50.5046 15.3147 50.4215 15.2188L50.3027 15.1C50.405 15.0145 50.5174 14.942 50.6375 14.884ZM49.7249 19.42H53.0945L52.4411 22.12H50.3783L49.7249 19.42ZM39.4001 15.0568L44.2601 22.12H39.4001V15.0568ZM41.0201 13.7338L45.8153 20.7538L45.0215 21.3424L40.2263 14.3224L41.0201 13.7338ZM38.3201 15.1V22.12H37.2401V15.1H38.3201ZM36.1601 22.12H35.0801V14.02H36.1601V22.12ZM34.0001 14.02V22.12H32.9201V14.02H34.0001ZM54.5201 24.28H32.9201V23.2H54.5201V24.28Z" fill="#6B6B6B"/>
<path d="M55.0601 22.12H53.5481L54.2987 19.0096C54.3173 18.9303 54.3177 18.8479 54.3 18.7684C54.2822 18.6889 54.2467 18.6144 54.1961 18.5506C54.1214 18.4642 54.0212 18.4037 53.9099 18.3778L54.0719 17.26H54.5201C54.6633 17.26 54.8007 17.2031 54.9019 17.1019C55.0032 17.0006 55.0601 16.8632 55.0601 16.72C55.0601 16.5768 55.0032 16.4395 54.9019 16.3382C54.8007 16.2369 54.6633 16.18 54.5201 16.18H54.1637C54.1196 15.4805 53.81 14.8242 53.298 14.3454C52.7861 13.8666 52.1106 13.6015 51.4097 13.6042H51.3287L50.9777 12.589C50.9274 12.4586 50.8285 12.3528 50.7018 12.2938C50.5751 12.2347 50.4304 12.2272 50.2982 12.2726C50.166 12.3181 50.0566 12.413 49.993 12.5375C49.9294 12.662 49.9165 12.8063 49.9571 12.94L50.2703 13.8418C50.0044 13.966 49.7602 14.1319 49.5467 14.3332L48.9689 13.7554C48.8656 13.667 48.7327 13.6207 48.5968 13.626C48.4609 13.6312 48.332 13.6876 48.2358 13.7837C48.1396 13.8799 48.0833 14.0088 48.078 14.1447C48.0728 14.2806 48.119 14.4135 48.2075 14.5168L48.9095 15.2188C48.7133 15.6443 48.6261 16.112 48.6557 16.5796L48.9149 18.3616C48.8036 18.3875 48.7034 18.448 48.6287 18.5344C48.5781 18.5982 48.5426 18.6727 48.5248 18.7522C48.507 18.8317 48.5075 18.9141 48.5261 18.9934L49.2659 22.12H45.7451L46.8575 21.2938C46.9666 21.2075 47.0382 21.0824 47.0573 20.9445C47.0764 20.8067 47.0416 20.6668 46.9601 20.554L41.5601 12.6592C41.5191 12.5993 41.4665 12.5482 41.4054 12.5091C41.3442 12.4699 41.2758 12.4435 41.2042 12.4314C41.1327 12.4193 41.0594 12.4218 40.9888 12.4387C40.9181 12.4555 40.8517 12.4865 40.7933 12.5296L39.1355 13.7662C39.047 13.8365 38.9827 13.9329 38.9519 14.0416C38.922 14.0318 38.8913 14.0245 38.8601 14.02H37.2401V13.48C37.2401 13.3368 37.1832 13.1995 37.0819 13.0982C36.9807 12.9969 36.8433 12.94 36.7001 12.94H32.3801C32.2369 12.94 32.0995 12.9969 31.9982 13.0982C31.897 13.1995 31.8401 13.3368 31.8401 13.48V24.82C31.8401 24.9632 31.897 25.1006 31.9982 25.2019C32.0995 25.3031 32.2369 25.36 32.3801 25.36H55.0601C55.2033 25.36 55.3407 25.3031 55.4419 25.2019C55.5432 25.1006 55.6001 24.9632 55.6001 24.82V22.66C55.6001 22.5168 55.5432 22.3795 55.4419 22.2782C55.3407 22.1769 55.2033 22.12 55.0601 22.12ZM50.6375 14.884C50.7038 14.988 50.8038 15.0661 50.9207 15.1054C51.0376 15.1447 51.1644 15.1428 51.2801 15.1C51.3648 15.0688 51.4403 15.0169 51.4997 14.9489C51.5591 14.881 51.6006 14.7993 51.6203 14.7112C52.012 14.7496 52.3775 14.9256 52.6517 15.208C52.8985 15.4764 53.0519 15.8173 53.0891 16.18H52.9001C52.7569 16.18 52.6195 16.2369 52.5182 16.3382C52.417 16.4395 52.3601 16.5768 52.3601 16.72C52.3601 16.8632 52.417 17.0006 52.5182 17.1019C52.6195 17.2031 52.7569 17.26 52.9001 17.26H52.9865L52.8299 18.34H49.9841L49.7141 16.477C49.7081 16.332 49.7208 16.1868 49.7519 16.045C49.8629 16.1065 49.992 16.127 50.1166 16.1028C50.2411 16.0786 50.3532 16.0113 50.4331 15.9127C50.513 15.8141 50.5556 15.6905 50.5535 15.5636C50.5514 15.4368 50.5046 15.3147 50.4215 15.2188L50.3027 15.1C50.405 15.0145 50.5174 14.942 50.6375 14.884ZM49.7249 19.42H53.0945L52.4411 22.12H50.3783L49.7249 19.42ZM39.4001 15.0568L44.2601 22.12H39.4001V15.0568ZM41.0201 13.7338L45.8153 20.7538L45.0215 21.3424L40.2263 14.3224L41.0201 13.7338ZM38.3201 15.1V22.12H37.2401V15.1H38.3201ZM36.1601 22.12H35.0801V14.02H36.1601V22.12ZM34.0001 14.02V22.12H32.9201V14.02H34.0001ZM54.5201 24.28H32.9201V23.2H54.5201V24.28Z" stroke="#6B6B6B" stroke-width="0.5" mask="url(#path-3-outside-1)"/>
<mask id="path-4-outside-2" maskUnits="userSpaceOnUse" x="11.3999" y="28.6801" width="45" height="28" fill="black">
<rect fill="white" x="11.3999" y="28.6801" width="45" height="28"/>
<path d="M55.5999 36.7001C55.5999 36.5568 55.543 36.4195 55.4417 36.3182C55.3405 36.2169 55.2031 36.1601 55.0599 36.1601H45.3399V35.6201C45.9312 35.4899 46.4603 35.1618 46.8396 34.6899C47.2189 34.218 47.4256 33.6308 47.4256 33.0254C47.4256 32.4199 47.2189 31.8327 46.8396 31.3608C46.4603 30.889 45.9312 30.5608 45.3399 30.4307V30.2201C45.3399 30.0768 45.283 29.9395 45.1817 29.8382C45.0805 29.7369 44.9431 29.6801 44.7999 29.6801H40.4799C40.3367 29.6801 40.1993 29.7369 40.0981 29.8382C39.9968 29.9395 39.9399 30.0768 39.9399 30.2201V36.1601H31.8399V34.1567C31.8385 33.113 31.4233 32.1126 30.6853 31.3746C29.9474 30.6367 28.9469 30.2215 27.9033 30.2201H21.7365C20.6929 30.2215 19.6924 30.6367 18.9545 31.3746C18.2165 32.1126 17.8013 33.113 17.7999 34.1567V36.1601H12.9399C12.7967 36.1601 12.6593 36.2169 12.5581 36.3182C12.4568 36.4195 12.3999 36.5568 12.3999 36.7001V55.0601C12.3999 55.2033 12.4568 55.3406 12.5581 55.4419C12.6593 55.5432 12.7967 55.6001 12.9399 55.6001C13.0831 55.6001 13.2205 55.5432 13.3217 55.4419C13.423 55.3406 13.4799 55.2033 13.4799 55.0601V39.4001H18.2265C18.5548 40.0493 19.0567 40.5948 19.6762 40.9761C20.2958 41.3574 21.009 41.5595 21.7365 41.5601H24.2799V44.8001H19.9599C19.387 44.8001 18.8376 45.0276 18.4326 45.4327C18.0275 45.8378 17.7999 46.3872 17.7999 46.9601C17.7999 47.5329 18.0275 48.0823 18.4326 48.4874C18.8376 48.8925 19.387 49.1201 19.9599 49.1201H24.2799V53.0891L19.7385 55.1087C19.6075 55.1667 19.5048 55.2743 19.4532 55.408C19.4015 55.5417 19.4051 55.6904 19.4631 55.8215C19.5211 55.9525 19.6288 56.0551 19.7625 56.1068C19.8961 56.1584 20.0449 56.1549 20.1759 56.0969L24.8199 54.0287L29.4585 56.0915C29.5895 56.1495 29.7383 56.153 29.8719 56.1014C30.0056 56.0497 30.1133 55.9471 30.1713 55.8161C30.2293 55.685 30.2329 55.5363 30.1812 55.4026C30.1296 55.2689 30.0269 55.1613 29.8959 55.1033L25.3599 53.0891V49.1201H29.6799C30.2528 49.1201 30.8022 48.8925 31.2073 48.4874C31.6123 48.0823 31.8399 47.5329 31.8399 46.9601C31.8399 46.3872 31.6123 45.8378 31.2073 45.4327C30.8022 45.0276 30.2528 44.8001 29.6799 44.8001H25.3599V41.5601H27.9033C28.6308 41.5595 29.344 41.3574 29.9636 40.9761C30.5832 40.5948 31.085 40.0493 31.4133 39.4001H42.6399V55.0601C42.6399 55.2033 42.6968 55.3406 42.7981 55.4419C42.8993 55.5432 43.0367 55.6001 43.1799 55.6001H55.0599C55.2031 55.6001 55.3405 55.5432 55.4417 55.4419C55.543 55.3406 55.5999 55.2033 55.5999 55.0601V39.4001C55.5973 39.3045 55.5693 39.2113 55.5189 39.1301C55.5693 39.0488 55.5973 38.9556 55.5999 38.8601V36.7001ZM30.7599 46.9601C30.7599 47.2465 30.6461 47.5212 30.4436 47.7237C30.241 47.9263 29.9663 48.0401 29.6799 48.0401H19.9599C19.6735 48.0401 19.3988 47.9263 19.1962 47.7237C18.9937 47.5212 18.8799 47.2465 18.8799 46.9601C18.8799 46.6736 18.9937 46.3989 19.1962 46.1964C19.3988 45.9938 19.6735 45.8801 19.9599 45.8801H29.6799C29.9663 45.8801 30.241 45.9938 30.4436 46.1964C30.6461 46.3989 30.7599 46.6736 30.7599 46.9601ZM43.7199 44.8001H54.5199V49.1201H43.7199V44.8001ZM46.3551 33.0227C46.3484 33.34 46.2486 33.6484 46.0681 33.9095C45.8876 34.1707 45.6344 34.373 45.3399 34.4915V31.5485C45.6352 31.6672 45.889 31.8704 46.0696 32.1326C46.2501 32.3948 46.3494 32.7044 46.3551 33.0227ZM41.0199 30.7601H44.2599V36.1601H41.0199V30.7601ZM13.4799 38.3201V37.2401H17.7999V37.6235C17.8008 37.8571 17.8224 38.0902 17.8647 38.3201H13.4799ZM27.9033 40.4801H21.7365C20.9793 40.4786 20.2536 40.1772 19.7182 39.6418C19.1828 39.1064 18.8813 38.3806 18.8799 37.6235V34.1567C18.8813 33.3995 19.1828 32.6737 19.7182 32.1383C20.2536 31.6029 20.9793 31.3015 21.7365 31.3001H27.9033C28.6605 31.3015 29.3862 31.6029 29.9216 32.1383C30.4571 32.6737 30.7585 33.3995 30.7599 34.1567V37.6235C30.7585 38.3806 30.4571 39.1064 29.9216 39.6418C29.3862 40.1772 28.6605 40.4786 27.9033 40.4801ZM31.7751 38.3201C31.8174 38.0902 31.839 37.8571 31.8399 37.6235V37.2401H54.5199V38.3201H31.7751ZM54.5199 39.4001V43.7201H43.7199V39.4001H54.5199ZM43.7199 54.5201V50.2001H54.5199V54.5201H43.7199Z"/>
</mask>
<path d="M55.5999 36.7001C55.5999 36.5568 55.543 36.4195 55.4417 36.3182C55.3405 36.2169 55.2031 36.1601 55.0599 36.1601H45.3399V35.6201C45.9312 35.4899 46.4603 35.1618 46.8396 34.6899C47.2189 34.218 47.4256 33.6308 47.4256 33.0254C47.4256 32.4199 47.2189 31.8327 46.8396 31.3608C46.4603 30.889 45.9312 30.5608 45.3399 30.4307V30.2201C45.3399 30.0768 45.283 29.9395 45.1817 29.8382C45.0805 29.7369 44.9431 29.6801 44.7999 29.6801H40.4799C40.3367 29.6801 40.1993 29.7369 40.0981 29.8382C39.9968 29.9395 39.9399 30.0768 39.9399 30.2201V36.1601H31.8399V34.1567C31.8385 33.113 31.4233 32.1126 30.6853 31.3746C29.9474 30.6367 28.9469 30.2215 27.9033 30.2201H21.7365C20.6929 30.2215 19.6924 30.6367 18.9545 31.3746C18.2165 32.1126 17.8013 33.113 17.7999 34.1567V36.1601H12.9399C12.7967 36.1601 12.6593 36.2169 12.5581 36.3182C12.4568 36.4195 12.3999 36.5568 12.3999 36.7001V55.0601C12.3999 55.2033 12.4568 55.3406 12.5581 55.4419C12.6593 55.5432 12.7967 55.6001 12.9399 55.6001C13.0831 55.6001 13.2205 55.5432 13.3217 55.4419C13.423 55.3406 13.4799 55.2033 13.4799 55.0601V39.4001H18.2265C18.5548 40.0493 19.0567 40.5948 19.6762 40.9761C20.2958 41.3574 21.009 41.5595 21.7365 41.5601H24.2799V44.8001H19.9599C19.387 44.8001 18.8376 45.0276 18.4326 45.4327C18.0275 45.8378 17.7999 46.3872 17.7999 46.9601C17.7999 47.5329 18.0275 48.0823 18.4326 48.4874C18.8376 48.8925 19.387 49.1201 19.9599 49.1201H24.2799V53.0891L19.7385 55.1087C19.6075 55.1667 19.5048 55.2743 19.4532 55.408C19.4015 55.5417 19.4051 55.6904 19.4631 55.8215C19.5211 55.9525 19.6288 56.0551 19.7625 56.1068C19.8961 56.1584 20.0449 56.1549 20.1759 56.0969L24.8199 54.0287L29.4585 56.0915C29.5895 56.1495 29.7383 56.153 29.8719 56.1014C30.0056 56.0497 30.1133 55.9471 30.1713 55.8161C30.2293 55.685 30.2329 55.5363 30.1812 55.4026C30.1296 55.2689 30.0269 55.1613 29.8959 55.1033L25.3599 53.0891V49.1201H29.6799C30.2528 49.1201 30.8022 48.8925 31.2073 48.4874C31.6123 48.0823 31.8399 47.5329 31.8399 46.9601C31.8399 46.3872 31.6123 45.8378 31.2073 45.4327C30.8022 45.0276 30.2528 44.8001 29.6799 44.8001H25.3599V41.5601H27.9033C28.6308 41.5595 29.344 41.3574 29.9636 40.9761C30.5832 40.5948 31.085 40.0493 31.4133 39.4001H42.6399V55.0601C42.6399 55.2033 42.6968 55.3406 42.7981 55.4419C42.8993 55.5432 43.0367 55.6001 43.1799 55.6001H55.0599C55.2031 55.6001 55.3405 55.5432 55.4417 55.4419C55.543 55.3406 55.5999 55.2033 55.5999 55.0601V39.4001C55.5973 39.3045 55.5693 39.2113 55.5189 39.1301C55.5693 39.0488 55.5973 38.9556 55.5999 38.8601V36.7001ZM30.7599 46.9601C30.7599 47.2465 30.6461 47.5212 30.4436 47.7237C30.241 47.9263 29.9663 48.0401 29.6799 48.0401H19.9599C19.6735 48.0401 19.3988 47.9263 19.1962 47.7237C18.9937 47.5212 18.8799 47.2465 18.8799 46.9601C18.8799 46.6736 18.9937 46.3989 19.1962 46.1964C19.3988 45.9938 19.6735 45.8801 19.9599 45.8801H29.6799C29.9663 45.8801 30.241 45.9938 30.4436 46.1964C30.6461 46.3989 30.7599 46.6736 30.7599 46.9601ZM43.7199 44.8001H54.5199V49.1201H43.7199V44.8001ZM46.3551 33.0227C46.3484 33.34 46.2486 33.6484 46.0681 33.9095C45.8876 34.1707 45.6344 34.373 45.3399 34.4915V31.5485C45.6352 31.6672 45.889 31.8704 46.0696 32.1326C46.2501 32.3948 46.3494 32.7044 46.3551 33.0227ZM41.0199 30.7601H44.2599V36.1601H41.0199V30.7601ZM13.4799 38.3201V37.2401H17.7999V37.6235C17.8008 37.8571 17.8224 38.0902 17.8647 38.3201H13.4799ZM27.9033 40.4801H21.7365C20.9793 40.4786 20.2536 40.1772 19.7182 39.6418C19.1828 39.1064 18.8813 38.3806 18.8799 37.6235V34.1567C18.8813 33.3995 19.1828 32.6737 19.7182 32.1383C20.2536 31.6029 20.9793 31.3015 21.7365 31.3001H27.9033C28.6605 31.3015 29.3862 31.6029 29.9216 32.1383C30.4571 32.6737 30.7585 33.3995 30.7599 34.1567V37.6235C30.7585 38.3806 30.4571 39.1064 29.9216 39.6418C29.3862 40.1772 28.6605 40.4786 27.9033 40.4801ZM31.7751 38.3201C31.8174 38.0902 31.839 37.8571 31.8399 37.6235V37.2401H54.5199V38.3201H31.7751ZM54.5199 39.4001V43.7201H43.7199V39.4001H54.5199ZM43.7199 54.5201V50.2001H54.5199V54.5201H43.7199Z" fill="#6B6B6B"/>
<path d="M55.5999 36.7001C55.5999 36.5568 55.543 36.4195 55.4417 36.3182C55.3405 36.2169 55.2031 36.1601 55.0599 36.1601H45.3399V35.6201C45.9312 35.4899 46.4603 35.1618 46.8396 34.6899C47.2189 34.218 47.4256 33.6308 47.4256 33.0254C47.4256 32.4199 47.2189 31.8327 46.8396 31.3608C46.4603 30.889 45.9312 30.5608 45.3399 30.4307V30.2201C45.3399 30.0768 45.283 29.9395 45.1817 29.8382C45.0805 29.7369 44.9431 29.6801 44.7999 29.6801H40.4799C40.3367 29.6801 40.1993 29.7369 40.0981 29.8382C39.9968 29.9395 39.9399 30.0768 39.9399 30.2201V36.1601H31.8399V34.1567C31.8385 33.113 31.4233 32.1126 30.6853 31.3746C29.9474 30.6367 28.9469 30.2215 27.9033 30.2201H21.7365C20.6929 30.2215 19.6924 30.6367 18.9545 31.3746C18.2165 32.1126 17.8013 33.113 17.7999 34.1567V36.1601H12.9399C12.7967 36.1601 12.6593 36.2169 12.5581 36.3182C12.4568 36.4195 12.3999 36.5568 12.3999 36.7001V55.0601C12.3999 55.2033 12.4568 55.3406 12.5581 55.4419C12.6593 55.5432 12.7967 55.6001 12.9399 55.6001C13.0831 55.6001 13.2205 55.5432 13.3217 55.4419C13.423 55.3406 13.4799 55.2033 13.4799 55.0601V39.4001H18.2265C18.5548 40.0493 19.0567 40.5948 19.6762 40.9761C20.2958 41.3574 21.009 41.5595 21.7365 41.5601H24.2799V44.8001H19.9599C19.387 44.8001 18.8376 45.0276 18.4326 45.4327C18.0275 45.8378 17.7999 46.3872 17.7999 46.9601C17.7999 47.5329 18.0275 48.0823 18.4326 48.4874C18.8376 48.8925 19.387 49.1201 19.9599 49.1201H24.2799V53.0891L19.7385 55.1087C19.6075 55.1667 19.5048 55.2743 19.4532 55.408C19.4015 55.5417 19.4051 55.6904 19.4631 55.8215C19.5211 55.9525 19.6288 56.0551 19.7625 56.1068C19.8961 56.1584 20.0449 56.1549 20.1759 56.0969L24.8199 54.0287L29.4585 56.0915C29.5895 56.1495 29.7383 56.153 29.8719 56.1014C30.0056 56.0497 30.1133 55.9471 30.1713 55.8161C30.2293 55.685 30.2329 55.5363 30.1812 55.4026C30.1296 55.2689 30.0269 55.1613 29.8959 55.1033L25.3599 53.0891V49.1201H29.6799C30.2528 49.1201 30.8022 48.8925 31.2073 48.4874C31.6123 48.0823 31.8399 47.5329 31.8399 46.9601C31.8399 46.3872 31.6123 45.8378 31.2073 45.4327C30.8022 45.0276 30.2528 44.8001 29.6799 44.8001H25.3599V41.5601H27.9033C28.6308 41.5595 29.344 41.3574 29.9636 40.9761C30.5832 40.5948 31.085 40.0493 31.4133 39.4001H42.6399V55.0601C42.6399 55.2033 42.6968 55.3406 42.7981 55.4419C42.8993 55.5432 43.0367 55.6001 43.1799 55.6001H55.0599C55.2031 55.6001 55.3405 55.5432 55.4417 55.4419C55.543 55.3406 55.5999 55.2033 55.5999 55.0601V39.4001C55.5973 39.3045 55.5693 39.2113 55.5189 39.1301C55.5693 39.0488 55.5973 38.9556 55.5999 38.8601V36.7001ZM30.7599 46.9601C30.7599 47.2465 30.6461 47.5212 30.4436 47.7237C30.241 47.9263 29.9663 48.0401 29.6799 48.0401H19.9599C19.6735 48.0401 19.3988 47.9263 19.1962 47.7237C18.9937 47.5212 18.8799 47.2465 18.8799 46.9601C18.8799 46.6736 18.9937 46.3989 19.1962 46.1964C19.3988 45.9938 19.6735 45.8801 19.9599 45.8801H29.6799C29.9663 45.8801 30.241 45.9938 30.4436 46.1964C30.6461 46.3989 30.7599 46.6736 30.7599 46.9601ZM43.7199 44.8001H54.5199V49.1201H43.7199V44.8001ZM46.3551 33.0227C46.3484 33.34 46.2486 33.6484 46.0681 33.9095C45.8876 34.1707 45.6344 34.373 45.3399 34.4915V31.5485C45.6352 31.6672 45.889 31.8704 46.0696 32.1326C46.2501 32.3948 46.3494 32.7044 46.3551 33.0227ZM41.0199 30.7601H44.2599V36.1601H41.0199V30.7601ZM13.4799 38.3201V37.2401H17.7999V37.6235C17.8008 37.8571 17.8224 38.0902 17.8647 38.3201H13.4799ZM27.9033 40.4801H21.7365C20.9793 40.4786 20.2536 40.1772 19.7182 39.6418C19.1828 39.1064 18.8813 38.3806 18.8799 37.6235V34.1567C18.8813 33.3995 19.1828 32.6737 19.7182 32.1383C20.2536 31.6029 20.9793 31.3015 21.7365 31.3001H27.9033C28.6605 31.3015 29.3862 31.6029 29.9216 32.1383C30.4571 32.6737 30.7585 33.3995 30.7599 34.1567V37.6235C30.7585 38.3806 30.4571 39.1064 29.9216 39.6418C29.3862 40.1772 28.6605 40.4786 27.9033 40.4801ZM31.7751 38.3201C31.8174 38.0902 31.839 37.8571 31.8399 37.6235V37.2401H54.5199V38.3201H31.7751ZM54.5199 39.4001V43.7201H43.7199V39.4001H54.5199ZM43.7199 54.5201V50.2001H54.5199V54.5201H43.7199Z" stroke="#6B6B6B" stroke-width="0.5" mask="url(#path-4-outside-2)"/>
<path d="M48.04 42.225H50.2C50.3764 42.225 50.5455 42.155 50.6702 42.0302C50.7949 41.9055 50.865 41.7364 50.865 41.56C50.865 41.3836 50.7949 41.2145 50.6702 41.0898C50.5455 40.9651 50.3764 40.895 50.2 40.895H48.04C47.8636 40.895 47.6945 40.9651 47.5698 41.0898C47.4451 41.2145 47.375 41.3836 47.375 41.56C47.375 41.7364 47.4451 41.9055 47.5698 42.0302C47.6945 42.155 47.8636 42.225 48.04 42.225Z" fill="#6B6B6B" stroke="#6B6B6B" stroke-width="0.25"/>
<path d="M50.2 46.295H48.04C47.8636 46.295 47.6945 46.3651 47.5698 46.4898C47.4451 46.6145 47.375 46.7837 47.375 46.96C47.375 47.1364 47.4451 47.3056 47.5698 47.4303C47.6945 47.555 47.8636 47.625 48.04 47.625H50.2C50.3764 47.625 50.5455 47.555 50.6702 47.4303C50.7949 47.3056 50.865 47.1364 50.865 46.96C50.865 46.7837 50.7949 46.6145 50.6702 46.4898C50.5455 46.3651 50.3764 46.295 50.2 46.295Z" fill="#6B6B6B" stroke="#6B6B6B" stroke-width="0.25"/>
<path d="M50.2 51.6949H48.04C47.8636 51.6949 47.6945 51.765 47.5698 51.8897C47.4451 52.0144 47.375 52.1836 47.375 52.36C47.375 52.5363 47.4451 52.7055 47.5698 52.8302C47.6945 52.9549 47.8636 53.025 48.04 53.025H50.2C50.3764 53.025 50.5455 52.9549 50.6702 52.8302C50.7949 52.7055 50.865 52.5363 50.865 52.36C50.865 52.1836 50.7949 52.0144 50.6702 51.8897C50.5455 51.765 50.3764 51.6949 50.2 51.6949Z" fill="#6B6B6B" stroke="#6B6B6B" stroke-width="0.25"/>
</svg>
