<svg width="31" height="42" viewBox="0 0 31 42" fill="none" xmlns="http://www.w3.org/2000/svg">
<path fill-rule="evenodd" clip-rule="evenodd" d="M12.7243 27.7292V18.4162H8.38404V18.8975L10.7486 20.1037V26.04L8.38404 27.2471V27.7284H12.7243V27.7292ZM27.7511 6.7662H2.45532V2.45616H27.7502V6.7662H27.7511ZM30.2064 40.745V0H0V40.745H2.22516V42H5.59608V40.745H24.6095V42H27.9804V40.745H30.2064ZM16.1868 38.2889V8.93424H27.7511V38.2889H16.1868ZM14.0196 8.93424V38.2889H2.45532V8.93424H14.0196ZM21.8215 18.4162H17.4821V27.7284H21.8215V27.2471L19.4569 26.04V20.1037L21.8215 18.8975V18.4162Z" fill="#6B6B6B"/>
</svg>
