<svg width="20" height="17" viewBox="0 0 20 17" fill="none" xmlns="http://www.w3.org/2000/svg">
<path fill-rule="evenodd" clip-rule="evenodd" d="M5.35574 2.33713C5.27501 2.41871 5.18831 2.50812 5.07253 2.62874C5.07253 2.62874 3.16516 4.60564 3.15878 4.61134C3.09961 4.66948 3.05037 4.7192 2.99932 4.77176C2.97586 4.79605 2.95499 4.81742 2.9105 4.86275C2.87224 4.90172 2.85453 4.91982 2.83249 4.94254L1.10791 6.73078C1.0709 6.77055 1.03914 6.80404 0.9983 6.84653L0.951804 6.89494C0.89915 6.94958 0.857492 6.99404 0.798614 7.05764C0.663561 7.19567 0.526614 7.35177 0.397662 7.51547C0.277845 7.64779 0.181114 7.80075 0.111859 7.96754L0.0935601 8.018C-0.0311867 8.41799 -0.0311867 8.84851 0.0935601 9.24851L0.112664 9.3009C0.182444 9.46727 0.27969 9.61969 0.399961 9.75133C0.528369 9.91475 0.665215 10.0709 0.809903 10.219C0.84034 10.253 0.885192 10.3004 0.945097 10.3625L1.02645 10.447C1.05511 10.4769 1.07987 10.5031 1.10286 10.5278L2.83199 12.322C2.91766 12.4107 2.95601 12.4502 3.02462 12.5195C3.08102 12.5772 3.1144 12.6109 3.17621 12.6699L5.07424 14.6387C5.2165 14.786 5.28032 14.8518 5.36076 14.9337C5.46533 15.042 5.53425 15.112 5.64192 15.221C5.68248 15.2653 5.69769 15.2816 5.71848 15.3017C5.96147 15.5546 6.25785 15.7781 6.5824 15.9496C6.90726 16.1191 7.25169 16.2368 7.60716 16.3004C7.94022 16.3572 8.27257 16.3876 8.6057 16.3919C8.747 16.3952 8.88875 16.3971 9.02878 16.3977L9.36232 16.3977H15.567C15.6958 16.3977 15.8235 16.3958 16.0004 16.3918C16.3316 16.3876 16.6673 16.3571 16.9993 16.3006C17.3619 16.2358 17.7087 16.1169 18.033 15.9472C18.3617 15.7751 18.6616 15.5499 18.9216 15.2801C19.1806 15.0109 19.3971 14.7021 19.5638 14.3644C19.729 14.024 19.8433 13.6641 19.9048 13.2927C19.9598 12.9445 19.989 12.5971 19.993 12.2489C19.9955 12.1634 19.9967 12.088 19.9986 11.9203L19.9999 11.813L20 11.2838V5.42547L19.999 5.33279C19.998 5.22943 19.9974 5.18429 19.9965 5.12637C19.9956 5.07206 19.9945 5.02223 19.9931 4.97422C19.9894 4.63943 19.9604 4.29508 19.9066 3.95444C19.8448 3.58155 19.7315 3.2247 19.5696 2.89077C19.402 2.55149 19.187 2.24501 18.9302 1.97831C18.6734 1.71039 18.3758 1.48622 18.0495 1.31516C17.7276 1.14652 17.3835 1.02845 17.0283 0.964697C16.6937 0.908329 16.3613 0.878259 16.0281 0.87374C15.8773 0.869956 15.738 0.867937 15.6042 0.867937C15.4691 0.866502 15.3574 0.866211 15.1065 0.866211H9.52702C9.27798 0.866211 9.16549 0.866503 9.02431 0.867966C8.89631 0.867937 8.75757 0.869943 8.59842 0.873852C8.2716 0.878297 7.93973 0.908373 7.61138 0.963722C7.25023 1.02855 6.90584 1.1465 6.5837 1.31473C6.25673 1.48726 5.96019 1.71104 5.70308 1.97882C5.69116 1.99096 5.68244 2.00046 5.60965 2.08094C5.51934 2.16964 5.43629 2.25341 5.35574 2.33713ZM5.86009 13.8253L3.94175 11.8355C3.94175 11.8355 3.90348 11.7994 3.8995 11.796C3.8699 11.7667 3.84444 11.7409 3.78084 11.6758C3.73493 11.6297 3.69921 11.5929 3.6179 11.5087L1.89571 9.7218C1.87551 9.7 1.84738 9.67028 1.81546 9.63693C1.79176 9.61216 1.77261 9.59229 1.73066 9.54884C1.67792 9.49422 1.64006 9.45417 1.60476 9.41535C1.4699 9.27677 1.35574 9.14595 1.24895 9.00879L1.21235 8.96628C1.18409 8.93656 1.16043 8.90257 1.14215 8.86552C1.10045 8.71329 1.10056 8.55201 1.14247 8.39983C1.16077 8.36211 1.18457 8.32747 1.21305 8.29714L1.2467 8.25788C1.35409 8.12044 1.46873 7.98926 1.59012 7.86495C1.65516 7.79499 1.69275 7.75486 1.72118 7.72502L1.78561 7.65836C1.8308 7.61135 1.86694 7.57324 1.90163 7.53582L3.61729 5.75698C3.63612 5.73758 3.65207 5.72128 3.69716 5.67534C3.73613 5.63563 3.7587 5.61252 3.78371 5.58662C3.82241 5.54678 3.86047 5.50825 3.89785 5.47113C3.90605 5.46403 3.9156 5.45486 3.94276 5.42878L3.94278 5.42877L3.94279 5.42875L3.94285 5.42869L5.85951 3.44093C5.97265 3.32305 6.05585 3.23725 6.1373 3.15487C6.21562 3.07354 6.29121 2.99729 6.37115 2.91876C6.38888 2.90163 6.39946 2.89016 6.4484 2.83639L6.48708 2.79407C6.66497 2.60883 6.86585 2.45724 7.08594 2.3411C7.30818 2.22505 7.54799 2.14292 7.79551 2.09846C8.06403 2.05323 8.34115 2.02812 8.61893 2.02431C8.77574 2.02049 8.90599 2.01861 9.02986 2.01861C9.17167 2.01717 9.28168 2.01688 9.52702 2.01688H15.1065C15.3536 2.01688 15.4629 2.01717 15.5986 2.01858C15.7283 2.01861 15.8589 2.0205 16.0075 2.0242C16.2919 2.02809 16.5696 2.05321 16.8444 2.09947C17.0854 2.14276 17.3244 2.22478 17.5479 2.34186C17.7679 2.45723 17.9688 2.60854 18.1427 2.78992C18.3188 2.97283 18.4656 3.18208 18.5787 3.41097C18.6895 3.63958 18.7684 3.88819 18.811 4.14472C18.855 4.42382 18.8791 4.71067 18.8824 4.99818C18.8839 5.05133 18.8848 5.09641 18.8857 5.14615C18.8866 5.20077 18.8871 5.24429 18.8881 5.34517L18.8891 5.43237L18.889 5.94125V11.8003L18.8878 11.9067C18.8859 12.0676 18.8848 12.1384 18.8823 12.225C18.8788 12.5258 18.8544 12.8157 18.8091 13.1025C18.7669 13.3575 18.687 13.6089 18.5729 13.8441C18.4605 14.0718 18.3121 14.2834 18.135 14.4676C17.9587 14.6504 17.755 14.8034 17.5318 14.9203C17.306 15.0385 17.0643 15.1213 16.8148 15.166C16.5423 15.2123 16.2622 15.2377 15.9815 15.2413C15.8066 15.2452 15.6862 15.247 15.567 15.247H9.03097C8.90001 15.2465 8.76492 15.2446 8.62492 15.2414C8.34234 15.2377 8.06564 15.2125 7.79195 15.1658C7.5488 15.1223 7.30902 15.0403 7.08472 14.9233C6.86692 14.8082 6.66559 14.6564 6.49081 14.4748C6.48035 14.4642 6.46584 14.4487 6.44748 14.4286L6.44512 14.426C6.40144 14.3783 6.39159 14.3676 6.38125 14.3573L6.36878 14.3452C6.30527 14.2835 6.24321 14.2204 6.14282 14.1164C6.06201 14.0342 5.99974 13.97 5.86009 13.8253ZM9.84395 11.6768C9.79888 11.7231 9.74489 11.7608 9.68397 11.7869C9.49777 11.8668 9.28346 11.8227 9.14096 11.6751C9.04718 11.5782 8.99448 11.4467 8.99448 11.3096C8.99448 11.1724 9.04718 11.0409 9.14096 10.9441V10.9452C9.16776 10.9175 9.19709 10.8934 9.22831 10.8731L11.3907 8.63066L9.14096 6.30314L9.14814 6.29569C9.10335 6.24895 9.06683 6.19294 9.04154 6.12971C8.96442 5.93686 9.00706 5.71488 9.14957 5.56729C9.2431 5.46981 9.3703 5.41499 9.50299 5.41499C9.63568 5.41499 9.76288 5.46981 9.85641 5.56729H9.85419C9.87834 5.5923 9.89962 5.61944 9.91794 5.64822L12.0943 7.90096L14.2768 5.63769C14.2937 5.61241 14.313 5.58835 14.3347 5.56585C14.4772 5.41824 14.6915 5.37408 14.8777 5.45396C15.0639 5.53383 15.1853 5.72202 15.1853 5.93075C15.1853 6.06957 15.1316 6.19929 15.0409 6.29411L15.0465 6.29998L12.7992 8.63054L14.974 10.8817C15.0008 10.9003 15.0259 10.9216 15.049 10.9455L15.0479 10.9467C15.1904 11.0943 15.2331 11.3163 15.1559 11.5091C15.0788 11.702 14.8971 11.8277 14.6956 11.8277C14.5616 11.8277 14.4363 11.7721 14.3448 11.6781L14.3405 11.6825L12.0957 9.36007L9.8528 11.686L9.84395 11.6768Z" fill="black"/>
</svg>
